<svg xmlns="http://www.w3.org/2000/svg" xmlns:xlink="http://www.w3.org/1999/xlink" width="1080" zoomAndPan="magnify" viewBox="0 0 810 1012.49997" height="1350" preserveAspectRatio="xMidYMid meet" version="1.0"><defs><clipPath id="d0383cef95"><path d="M 0.199219 0 L 809.800781 0 L 809.800781 1012 L 0.199219 1012 Z M 0.199219 0 " clip-rule="nonzero"/></clipPath><clipPath id="c512a0e6d4"><path d="M 243.078125 344.078125 L 566.921875 344.078125 L 566.921875 667.921875 L 243.078125 667.921875 Z M 243.078125 344.078125 " clip-rule="nonzero"/></clipPath><clipPath id="796683f9a6"><path d="M 354 390 L 492 390 L 492 667.921875 L 354 667.921875 Z M 354 390 " clip-rule="nonzero"/></clipPath><clipPath id="7aabc1d25c"><path d="M 344 380 L 502 380 L 502 667.921875 L 344 667.921875 Z M 344 380 " clip-rule="nonzero"/></clipPath></defs><g clip-path="url(#d0383cef95)"><path fill="#ffffff" d="M 0.199219 0 L 809.800781 0 L 809.800781 1012 L 0.199219 1012 Z M 0.199219 0 " fill-opacity="1" fill-rule="nonzero"/><path fill="#ffffff" d="M 0.199219 0 L 809.800781 0 L 809.800781 1012 L 0.199219 1012 Z M 0.199219 0 " fill-opacity="1" fill-rule="nonzero"/></g><g clip-path="url(#c512a0e6d4)"><path stroke-linecap="butt" transform="matrix(0.726914, 0, 0, 0.726914, 230.177246, 335.4298)" fill-opacity="1" fill="#a855f7" fill-rule="nonzero" stroke-linejoin="miter" d="M 462.69906 234.6015 C 462.69906 238.234153 462.61308 241.872179 462.430373 245.504832 C 462.253039 249.137484 461.984352 252.75939 461.629685 256.381295 C 461.275017 259.997826 460.828996 263.608984 460.296995 267.20402 C 459.759621 270.799057 459.14164 274.383346 458.432305 277.951514 C 457.722971 281.514308 456.922283 285.06098 456.040988 288.591532 C 455.159694 292.11671 454.187046 295.620392 453.133791 299.10258 C 452.075163 302.579394 450.935929 306.034713 449.710715 309.45779 C 448.4855 312.880866 447.17968 316.271701 445.78788 319.630292 C 444.396079 322.994257 442.923673 326.315233 441.365286 329.603966 C 439.812273 332.892699 438.178654 336.138442 436.464429 339.346568 C 434.750204 342.549321 432.955373 345.714458 431.085309 348.831231 C 429.215245 351.953378 427.275323 355.021787 425.254794 358.047206 C 423.234265 361.072626 421.138504 364.044308 418.972884 366.962252 C 416.807264 369.88557 414.571786 372.749777 412.261075 375.560247 C 409.955737 378.370716 407.580541 381.127448 405.14086 383.819695 C 402.695806 386.517316 400.19164 389.145078 397.617615 391.719102 C 395.048964 394.293127 392.415829 396.797293 389.718208 399.236974 C 387.025961 401.682029 384.274603 404.057225 381.464133 406.362562 C 378.653664 408.667899 375.784083 410.908752 372.866139 413.074371 C 369.94282 415.239991 366.971139 417.330379 363.945719 419.350907 C 360.925674 421.371436 357.851891 423.316732 354.735118 425.186796 C 351.612971 427.05686 348.453208 428.846318 345.245081 430.560543 C 342.036954 432.274768 338.791211 433.913761 335.502479 435.466773 C 332.213746 437.019786 328.89277 438.492193 325.534179 439.883993 C 322.170213 441.275793 318.779379 442.586988 315.356303 443.812202 C 311.933226 445.037416 308.483281 446.17665 305.001093 447.229905 C 301.518905 448.288533 298.015222 449.255807 294.490045 450.142475 C 290.964867 451.02377 287.418194 451.819084 283.850026 452.528419 C 280.281859 453.237753 276.702944 453.861108 273.102533 454.393109 C 269.507497 454.930483 265.896339 455.371131 262.279808 455.731172 C 258.657902 456.085839 255.035997 456.354526 251.403345 456.53186 C 247.770692 456.709194 244.138039 456.800547 240.500013 456.800547 C 236.861986 456.800547 233.229334 456.709194 229.596681 456.53186 C 225.964028 456.354526 222.342123 456.085839 218.720218 455.731172 C 215.103686 455.371131 211.492529 454.930483 207.897492 454.393109 C 204.297082 453.861108 200.718167 453.237753 197.149999 452.528419 C 193.581831 451.819084 190.035159 451.02377 186.509981 450.142475 C 182.984803 449.255807 179.48112 448.288533 175.998933 447.229905 C 172.516745 446.17665 169.0668 445.037416 165.643723 443.812202 C 162.220646 442.586988 158.829812 441.275793 155.465847 439.883993 C 152.107255 438.492193 148.78628 437.019786 145.497547 435.466773 C 142.208814 433.913761 138.963071 432.274768 135.754944 430.560543 C 132.546818 428.846318 129.387055 427.05686 126.264908 425.186796 C 123.148135 423.316732 120.074352 421.371436 117.054306 419.350907 C 114.028887 417.330379 111.057205 415.239991 108.133887 413.074371 C 105.215943 410.908752 102.346362 408.667899 99.535893 406.362562 C 96.725423 404.057225 93.974065 401.682029 91.281818 399.236974 C 88.584197 396.797293 85.951061 394.287753 83.38241 391.719102 C 80.808386 389.145078 78.30422 386.517316 75.859165 383.819695 C 73.419484 381.127448 71.044288 378.370716 68.738951 375.560247 C 66.42824 372.749777 64.192761 369.88557 62.027141 366.962252 C 59.861522 364.044308 57.76576 361.072626 55.745232 358.047206 C 53.724703 355.021787 51.78478 351.953378 49.914717 348.831231 C 48.044653 345.714458 46.249821 342.549321 44.535596 339.346568 C 42.821371 336.138442 41.187752 332.892699 39.634739 329.603966 C 38.076353 326.315233 36.603946 322.994257 35.212146 319.630292 C 33.820346 316.271701 32.514525 312.880866 31.289311 309.45779 C 30.064097 306.034713 28.924863 302.579394 27.866234 299.10258 C 26.81298 295.620392 25.840332 292.11671 24.959038 288.591532 C 24.077743 285.06098 23.277055 281.514308 22.56772 277.951514 C 21.858386 274.383346 21.240405 270.799057 20.70303 267.20402 C 20.171029 263.608984 19.725008 259.997826 19.370341 256.381295 C 19.015674 252.75939 18.746986 249.137484 18.569653 245.504832 C 18.386945 241.872179 18.300966 238.234153 18.300966 234.6015 C 18.300966 230.963474 18.386945 227.330821 18.569653 223.698168 C 18.746986 220.065516 19.015674 216.438237 19.370341 212.821705 C 19.725008 209.1998 20.171029 205.594016 20.70303 201.99898 C 21.240405 198.398569 21.858386 194.819654 22.56772 191.251486 C 23.277055 187.683319 24.077743 184.136646 24.959038 180.611468 C 25.840332 177.080917 26.81298 173.577234 27.866234 170.10042 C 28.924863 166.618232 30.064097 163.168287 31.289311 159.74521 C 32.514525 156.31676 33.820346 152.925926 35.212146 149.567334 C 36.603946 146.208743 38.076353 142.882393 39.634739 139.599034 C 41.187752 136.310301 42.821371 133.064558 44.535596 129.856432 C 46.249821 126.648305 48.044653 123.483168 49.914717 120.366395 C 51.78478 117.249622 53.724703 114.175839 55.745232 111.15042 C 57.76576 108.130374 59.861522 105.158692 62.027141 102.235374 C 64.192761 99.31743 66.42824 96.447849 68.738951 93.63738 C 71.044288 90.82691 73.419484 88.075552 75.859165 85.377931 C 78.30422 82.685684 80.808386 80.052548 83.38241 77.478524 C 85.951061 74.909873 88.584197 72.400333 91.281818 69.960652 C 93.974065 67.520971 96.725423 65.145775 99.535893 62.835064 C 102.346362 60.529727 105.215943 58.294248 108.133887 56.128629 C 111.057205 53.963009 114.028887 51.867248 117.054306 49.846719 C 120.074352 47.82619 123.148135 45.880894 126.264908 44.01083 C 129.387055 42.140766 132.546818 40.351309 135.754944 38.637084 C 138.963071 36.922858 142.208814 35.289239 145.497547 33.736227 C 148.78628 32.17784 152.107255 30.705434 155.465847 29.313633 C 158.829812 27.921833 162.220646 26.616012 165.643723 25.390798 C 169.0668 24.165584 172.516745 23.020976 175.998933 21.967722 C 179.48112 20.914467 182.984803 19.941819 186.509981 19.060525 C 190.035159 18.173857 193.581831 17.378542 197.149999 16.669207 C 200.718167 15.959873 204.297082 15.336518 207.897492 14.804517 C 211.492529 14.272517 215.103686 13.826496 218.720218 13.471828 C 222.342123 13.111787 225.964028 12.848474 229.596681 12.665766 C 233.229334 12.488433 236.861986 12.402453 240.500013 12.402453 C 244.138039 12.402453 247.770692 12.488433 251.403345 12.665766 C 255.035997 12.848474 258.657902 13.111787 262.279808 13.471828 C 265.896339 13.826496 269.507497 14.272517 273.102533 14.804517 C 276.702944 15.336518 280.281859 15.959873 283.850026 16.669207 C 287.418194 17.378542 290.964867 18.173857 294.490045 19.060525 C 298.015222 19.941819 301.518905 20.914467 305.001093 21.967722 C 308.483281 23.020976 311.933226 24.165584 315.356303 25.390798 C 318.779379 26.616012 322.170213 27.921833 325.534179 29.313633 C 328.89277 30.705434 332.213746 32.17784 335.502479 33.736227 C 338.791211 35.289239 342.036954 36.922858 345.245081 38.637084 C 348.453208 40.351309 351.612971 42.140766 354.735118 44.01083 C 357.851891 45.880894 360.925674 47.82619 363.945719 49.846719 C 366.971139 51.867248 369.94282 53.963009 372.866139 56.128629 C 375.784083 58.294248 378.653664 60.529727 381.464133 62.835064 C 384.274603 65.145775 387.025961 67.520971 389.718208 69.960652 C 392.415829 72.400333 395.048964 74.909873 397.617615 77.478524 C 400.19164 80.052548 402.695806 82.685684 405.14086 85.377931 C 407.580541 88.075552 409.955737 90.82691 412.261075 93.63738 C 414.571786 96.447849 416.807264 99.31743 418.972884 102.235374 C 421.138504 105.158692 423.234265 108.130374 425.254794 111.15042 C 427.275323 114.175839 429.215245 117.249622 431.085309 120.366395 C 432.955373 123.483168 434.750204 126.648305 436.464429 129.856432 C 438.178654 133.064558 439.812273 136.310301 441.365286 139.599034 C 442.923673 142.882393 444.396079 146.208743 445.78788 149.567334 C 447.17968 152.925926 448.4855 156.31676 449.710715 159.74521 C 450.935929 163.168287 452.075163 166.618232 453.133791 170.10042 C 454.187046 173.577234 455.159694 177.080917 456.040988 180.611468 C 456.922283 184.136646 457.722971 187.683319 458.432305 191.251486 C 459.14164 194.819654 459.759621 198.398569 460.296995 201.99898 C 460.828996 205.594016 461.275017 209.1998 461.629685 212.821705 C 461.984352 216.438237 462.253039 220.065516 462.430373 223.698168 C 462.61308 227.330821 462.69906 230.963474 462.69906 234.6015 Z M 462.69906 234.6015 " stroke="#4267b2" stroke-width="1" stroke-opacity="1" stroke-miterlimit="10"/></g><g clip-path="url(#796683f9a6)"><path fill="#ffffff" d="M 442.945312 392.128906 C 430.078125 394.457031 425.644531 396.636719 418.230469 400.851562 C 410.304688 405.359375 404.78125 410.082031 401.003906 413.9375 C 388.644531 426.730469 385.882812 438.652344 383.554688 447.882812 C 380.066406 461.476562 380.429688 474.269531 380.429688 474.269531 L 380.429688 484.230469 L 354.480469 484.230469 L 354.480469 529.371094 L 380.429688 529.371094 L 380.429688 665.667969 C 388.425781 666.902344 396.640625 667.558594 405 667.558594 C 417.359375 667.558594 429.425781 666.175781 440.980469 663.558594 L 440.980469 529.371094 L 480.453125 529.371094 L 480.453125 484.230469 L 440.980469 484.230469 L 440.980469 474.632812 C 440.980469 474.632812 440.980469 472.890625 440.980469 472.671875 C 440.980469 472.453125 440.980469 472.164062 440.980469 471.945312 C 440.980469 469.980469 441.054688 467.074219 441.492188 464.53125 C 442.582031 457.914062 444.835938 452.753906 448.613281 448.175781 C 452.976562 442.941406 458.066406 440.6875 463.734375 439.816406 C 477.765625 437.632812 489.46875 442.503906 489.46875 442.503906 L 491.648438 395.035156 C 491.648438 395.035156 482.851562 392.203125 468.3125 391.183594 C 458.066406 390.457031 448.976562 391.039062 442.945312 392.128906 Z M 442.945312 392.128906 " fill-opacity="1" fill-rule="nonzero"/></g><g clip-path="url(#7aabc1d25c)"><path stroke-linecap="butt" transform="matrix(0.726914, 0, 0, 0.726914, 230.177246, 335.4298)" fill="none" stroke-linejoin="miter" d="M 292.700587 77.999777 C 274.999466 81.20253 268.900263 84.201081 258.700892 89.999353 C 247.797561 96.200657 240.199083 102.697516 235.00267 108.001404 C 218.000136 125.600424 214.200897 142.001099 210.998144 154.699262 C 206.199388 173.3999 206.699147 190.99892 206.699147 190.99892 L 206.699147 204.701974 L 171.001348 204.701974 L 171.001348 266.80099 L 206.699147 266.80099 L 206.699147 454.301755 C 217.699206 455.999859 229.000195 456.902648 240.500013 456.902648 C 257.502547 456.902648 274.10205 455.000342 289.997593 451.399932 L 289.997593 266.80099 L 344.299302 266.80099 L 344.299302 204.701974 L 289.997593 204.701974 L 289.997593 191.498679 C 289.997593 191.498679 289.997593 189.101988 289.997593 188.801058 C 289.997593 188.500128 289.997593 188.102471 289.997593 187.801541 C 289.997593 185.098547 290.099694 181.100479 290.701553 177.60217 C 292.200829 168.499043 295.30148 161.400324 300.497893 155.102293 C 306.500368 147.901473 313.50236 144.800821 321.299666 143.602475 C 340.602164 140.598551 356.701909 147.299613 356.701909 147.299613 L 359.700459 81.997845 C 359.700459 81.997845 347.598782 78.101878 327.597697 76.699331 C 313.50236 75.699814 300.997652 76.500502 292.700587 77.999777 Z M 292.700587 77.999777 " stroke="#ffffff" stroke-width="1" stroke-opacity="1" stroke-miterlimit="10"/></g></svg>