<svg xmlns="http://www.w3.org/2000/svg" xmlns:xlink="http://www.w3.org/1999/xlink" width="1080" zoomAndPan="magnify" viewBox="0 0 810 1012.49997" height="1350" preserveAspectRatio="xMidYMid meet" version="1.0"><defs><clipPath id="e02f891da8"><path d="M 0.199219 0 L 809.800781 0 L 809.800781 1012 L 0.199219 1012 Z M 0.199219 0 " clip-rule="nonzero"/></clipPath><clipPath id="bac7194e9b"><path d="M 243.078125 344.078125 L 566.921875 344.078125 L 566.921875 667.921875 L 243.078125 667.921875 Z M 243.078125 344.078125 " clip-rule="nonzero"/></clipPath></defs><g clip-path="url(#e02f891da8)"><path fill="#ffffff" d="M 0.199219 0 L 809.800781 0 L 809.800781 1012 L 0.199219 1012 Z M 0.199219 0 " fill-opacity="1" fill-rule="nonzero"/><path fill="#ffffff" d="M 0.199219 0 L 809.800781 0 L 809.800781 1012 L 0.199219 1012 Z M 0.199219 0 " fill-opacity="1" fill-rule="nonzero"/></g><g clip-path="url(#bac7194e9b)"><path fill="#a855f7" d="M 405.890625 344.078125 C 361.285156 344.078125 355.933594 344.078125 338.984375 344.972656 C 322.03125 344.972656 309.542969 348.539062 299.730469 352.109375 C 289.023438 356.570312 280.101562 361.921875 271.183594 370.84375 C 262.261719 379.765625 256.90625 388.6875 252.445312 399.390625 C 247.988281 410.097656 245.308594 421.695312 245.308594 438.644531 C 243.527344 457.378906 243.527344 462.730469 243.527344 506.445312 C 243.527344 551.050781 243.527344 556.40625 244.417969 573.355469 C 244.417969 590.304688 247.988281 602.796875 251.554688 612.609375 C 256.015625 623.3125 261.367188 632.234375 270.289062 641.15625 C 279.210938 650.078125 288.132812 655.429688 298.835938 659.890625 C 309.542969 664.351562 321.140625 667.027344 338.089844 667.027344 C 355.042969 667.027344 361.285156 667.921875 405 667.921875 C 448.714844 667.921875 454.957031 667.921875 471.910156 667.027344 C 488.859375 667.027344 501.347656 663.460938 511.164062 659.890625 C 521.867188 655.429688 530.789062 650.078125 539.710938 641.15625 C 548.632812 632.234375 553.984375 623.3125 558.445312 612.609375 C 562.011719 601.902344 565.582031 590.304688 565.582031 573.355469 C 565.582031 556.40625 566.472656 550.160156 566.472656 506.445312 C 566.472656 461.839844 566.472656 456.488281 565.582031 439.535156 C 565.582031 422.585938 562.011719 410.097656 558.445312 400.285156 C 553.984375 389.578125 548.632812 380.65625 539.710938 371.734375 C 530.789062 362.816406 521.867188 357.460938 511.164062 353 C 500.457031 348.539062 488.859375 345.863281 471.910156 345.863281 C 455.851562 344.078125 450.5 344.078125 405.890625 344.078125 Z M 391.617188 373.519531 C 396.078125 373.519531 400.539062 373.519531 405.890625 373.519531 C 449.605469 373.519531 454.066406 373.519531 471.910156 374.414062 C 487.96875 374.414062 495.996094 377.980469 502.242188 379.765625 C 510.269531 382.441406 515.621094 386.007812 520.976562 392.253906 C 526.328125 397.605469 529.898438 402.960938 533.464844 410.988281 C 535.25 416.34375 537.925781 425.261719 538.816406 441.320312 C 538.816406 458.273438 539.710938 463.625 539.710938 507.339844 C 539.710938 551.050781 539.710938 555.511719 538.816406 573.355469 C 538.816406 589.414062 535.25 597.441406 533.464844 603.6875 C 530.789062 611.714844 527.21875 617.070312 520.976562 622.421875 C 515.621094 627.773438 510.269531 631.34375 502.242188 634.910156 C 496.886719 637.589844 487.96875 639.371094 471.910156 640.265625 C 454.957031 640.265625 449.605469 641.15625 405.890625 641.15625 C 362.179688 641.15625 357.71875 641.15625 339.875 640.265625 C 323.816406 640.265625 315.789062 636.695312 309.542969 634.910156 C 301.515625 632.234375 296.160156 628.667969 290.808594 622.421875 C 285.457031 617.070312 281.886719 611.714844 278.320312 603.6875 C 276.535156 598.335938 273.859375 589.414062 272.964844 573.355469 C 272.964844 556.40625 272.074219 551.050781 272.074219 507.339844 C 272.074219 463.625 272.074219 459.164062 272.964844 441.320312 C 272.964844 425.261719 276.535156 417.234375 278.320312 410.988281 C 280.996094 402.960938 284.5625 397.605469 290.808594 392.253906 C 296.160156 386.902344 301.515625 383.332031 309.542969 379.765625 C 314.894531 377.089844 323.816406 375.304688 339.875 374.414062 C 355.042969 374.414062 360.394531 374.414062 390.726562 373.519531 Z M 405.890625 423.480469 C 359.5 423.480469 322.03125 460.949219 322.03125 507.339844 C 322.03125 553.730469 359.5 591.199219 405.890625 591.199219 C 452.28125 591.199219 489.75 553.730469 489.75 507.339844 C 489.75 460.949219 452.28125 423.480469 405.890625 423.480469 Z M 405.890625 452.917969 C 436.222656 452.917969 460.3125 477.007812 460.3125 507.339844 C 460.3125 537.671875 436.222656 561.757812 405.890625 561.757812 C 375.558594 561.757812 351.472656 537.671875 351.472656 507.339844 C 351.472656 477.007812 375.558594 452.917969 405.890625 452.917969 Z M 405.890625 452.917969 " fill-opacity="1" fill-rule="nonzero"/></g></svg>