<svg xmlns="http://www.w3.org/2000/svg" xmlns:xlink="http://www.w3.org/1999/xlink" width="1080" zoomAndPan="magnify" viewBox="0 0 810 1012.49997" height="1350" preserveAspectRatio="xMidYMid meet" version="1.0"><defs><clipPath id="3f87868a23"><path d="M 0.199219 0 L 809.800781 0 L 809.800781 1012 L 0.199219 1012 Z M 0.199219 0 " clip-rule="nonzero"/></clipPath><clipPath id="ec5bd2f24a"><path d="M 243.078125 343.675781 L 566.921875 343.675781 L 566.921875 668 L 243.078125 668 Z M 243.078125 343.675781 " clip-rule="nonzero"/></clipPath></defs><g clip-path="url(#3f87868a23)"><path fill="#ffffff" d="M 0.199219 0 L 809.800781 0 L 809.800781 1012 L 0.199219 1012 Z M 0.199219 0 " fill-opacity="1" fill-rule="nonzero"/><path fill="#ffffff" d="M 0.199219 0 L 809.800781 0 L 809.800781 1012 L 0.199219 1012 Z M 0.199219 0 " fill-opacity="1" fill-rule="nonzero"/></g><g clip-path="url(#ec5bd2f24a)"><path fill="#a855f7" d="M 566.917969 505.949219 C 566.917969 508.601562 566.851562 511.25 566.722656 513.898438 C 566.59375 516.546875 566.398438 519.191406 566.136719 521.828125 C 565.878906 524.46875 565.554688 527.097656 565.164062 529.71875 C 564.777344 532.339844 564.324219 534.953125 563.804688 537.554688 C 563.289062 540.152344 562.707031 542.738281 562.0625 545.3125 C 561.421875 547.882812 560.714844 550.4375 559.945312 552.976562 C 559.175781 555.511719 558.34375 558.027344 557.453125 560.523438 C 556.558594 563.019531 555.605469 565.492188 554.589844 567.941406 C 553.578125 570.390625 552.503906 572.816406 551.371094 575.210938 C 550.238281 577.609375 549.046875 579.976562 547.796875 582.3125 C 546.550781 584.652344 545.242188 586.957031 543.882812 589.234375 C 542.519531 591.507812 541.101562 593.746094 539.628906 595.949219 C 538.15625 598.15625 536.632812 600.320312 535.054688 602.453125 C 533.476562 604.582031 531.84375 606.671875 530.164062 608.71875 C 528.484375 610.769531 526.753906 612.777344 524.972656 614.742188 C 523.191406 616.703125 521.367188 618.625 519.492188 620.5 C 517.617188 622.375 515.699219 624.199219 513.738281 625.980469 C 511.773438 627.761719 509.769531 629.496094 507.71875 631.175781 C 505.671875 632.859375 503.582031 634.488281 501.453125 636.066406 C 499.324219 637.644531 497.160156 639.171875 494.957031 640.644531 C 492.753906 642.117188 490.515625 643.535156 488.242188 644.898438 C 485.96875 646.261719 483.664062 647.566406 481.328125 648.820312 C 478.988281 650.070312 476.625 651.257812 474.226562 652.394531 C 471.832031 653.527344 469.410156 654.601562 466.960938 655.617188 C 464.515625 656.632812 462.042969 657.585938 459.546875 658.476562 C 457.054688 659.371094 454.539062 660.203125 452.003906 660.972656 C 449.464844 661.742188 446.914062 662.449219 444.34375 663.09375 C 441.773438 663.734375 439.1875 664.316406 436.589844 664.832031 C 433.988281 665.351562 431.378906 665.804688 428.757812 666.195312 C 426.136719 666.582031 423.507812 666.90625 420.871094 667.167969 C 418.234375 667.425781 415.59375 667.621094 412.945312 667.753906 C 410.300781 667.882812 407.652344 667.949219 405 667.949219 C 402.351562 667.949219 399.703125 667.882812 397.054688 667.753906 C 394.410156 667.625 391.765625 667.429688 389.128906 667.167969 C 386.492188 666.910156 383.863281 666.585938 381.242188 666.195312 C 378.621094 665.804688 376.011719 665.351562 373.410156 664.835938 C 370.8125 664.316406 368.226562 663.738281 365.65625 663.09375 C 363.085938 662.449219 360.535156 661.742188 358 660.972656 C 355.460938 660.203125 352.949219 659.371094 350.453125 658.476562 C 347.957031 657.585938 345.484375 656.632812 343.035156 655.617188 C 340.589844 654.601562 338.167969 653.527344 335.773438 652.394531 C 333.375 651.257812 331.011719 650.070312 328.671875 648.820312 C 326.335938 647.566406 324.03125 646.261719 321.757812 644.898438 C 319.484375 643.535156 317.246094 642.117188 315.042969 640.644531 C 312.839844 639.171875 310.675781 637.644531 308.546875 636.066406 C 306.417969 634.488281 304.328125 632.859375 302.28125 631.175781 C 300.234375 629.496094 298.226562 627.761719 296.261719 625.980469 C 294.300781 624.199219 292.382812 622.375 290.507812 620.5 C 288.632812 618.625 286.804688 616.703125 285.027344 614.742188 C 283.246094 612.777344 281.515625 610.769531 279.835938 608.71875 C 278.15625 606.671875 276.527344 604.582031 274.945312 602.453125 C 273.367188 600.320312 271.84375 598.15625 270.371094 595.949219 C 268.898438 593.746094 267.480469 591.507812 266.117188 589.234375 C 264.757812 586.957031 263.449219 584.652344 262.203125 582.3125 C 260.953125 579.976562 259.761719 577.609375 258.628906 575.210938 C 257.496094 572.816406 256.421875 570.390625 255.40625 567.941406 C 254.394531 565.492188 253.441406 563.019531 252.546875 560.523438 C 251.65625 558.027344 250.824219 555.511719 250.054688 552.976562 C 249.285156 550.4375 248.578125 547.882812 247.933594 545.3125 C 247.292969 542.738281 246.710938 540.152344 246.195312 537.554688 C 245.675781 534.953125 245.222656 532.34375 244.835938 529.71875 C 244.445312 527.097656 244.121094 524.46875 243.863281 521.828125 C 243.601562 519.191406 243.40625 516.546875 243.277344 513.898438 C 243.148438 511.25 243.082031 508.601562 243.082031 505.949219 C 243.082031 503.300781 243.148438 500.648438 243.277344 498 C 243.40625 495.351562 243.601562 492.710938 243.863281 490.070312 C 244.121094 487.433594 244.445312 484.800781 244.835938 482.179688 C 245.222656 479.558594 245.675781 476.945312 246.195312 474.34375 C 246.710938 471.746094 247.292969 469.160156 247.933594 466.585938 C 248.578125 464.015625 249.285156 461.460938 250.054688 458.925781 C 250.824219 456.386719 251.65625 453.871094 252.546875 451.375 C 253.441406 448.878906 254.394531 446.402344 255.40625 443.953125 C 256.421875 441.503906 257.496094 439.082031 258.628906 436.6875 C 259.761719 434.289062 260.953125 431.921875 262.203125 429.585938 C 263.449219 427.246094 264.757812 424.9375 266.117188 422.664062 C 267.480469 420.390625 268.898438 418.152344 270.371094 415.949219 C 271.84375 413.742188 273.367188 411.578125 274.945312 409.445312 C 276.527344 407.316406 278.15625 405.226562 279.835938 403.179688 C 281.515625 401.128906 283.246094 399.121094 285.027344 397.15625 C 286.804688 395.195312 288.632812 393.273438 290.507812 391.398438 C 292.382812 389.523438 294.300781 387.695312 296.261719 385.917969 C 298.226562 384.136719 300.230469 382.40625 302.28125 380.722656 C 304.328125 379.042969 306.417969 377.410156 308.546875 375.832031 C 310.675781 374.253906 312.839844 372.726562 315.042969 371.253906 C 317.246094 369.78125 319.484375 368.363281 321.757812 367 C 324.03125 365.636719 326.335938 364.328125 328.671875 363.078125 C 331.011719 361.832031 333.375 360.636719 335.773438 359.503906 C 338.167969 358.371094 340.589844 357.296875 343.035156 356.285156 C 345.484375 355.269531 347.957031 354.316406 350.453125 353.421875 C 352.945312 352.527344 355.460938 351.695312 358 350.925781 C 360.535156 350.160156 363.085938 349.453125 365.65625 348.808594 C 368.226562 348.164062 370.8125 347.582031 373.410156 347.066406 C 376.011719 346.546875 378.621094 346.09375 381.242188 345.707031 C 383.863281 345.316406 386.492188 344.992188 389.128906 344.734375 C 391.765625 344.472656 394.410156 344.277344 397.054688 344.148438 C 399.703125 344.019531 402.351562 343.953125 405 343.953125 C 407.652344 343.953125 410.300781 344.019531 412.945312 344.148438 C 415.59375 344.277344 418.234375 344.472656 420.871094 344.734375 C 423.507812 344.992188 426.136719 345.316406 428.757812 345.707031 C 431.378906 346.09375 433.988281 346.546875 436.589844 347.066406 C 439.1875 347.582031 441.773438 348.160156 444.34375 348.808594 C 446.914062 349.449219 449.464844 350.15625 452 350.925781 C 454.539062 351.695312 457.054688 352.527344 459.546875 353.421875 C 462.042969 354.316406 464.515625 355.269531 466.960938 356.285156 C 469.410156 357.296875 471.832031 358.371094 474.226562 359.503906 C 476.625 360.636719 478.988281 361.832031 481.328125 363.078125 C 483.664062 364.328125 485.96875 365.636719 488.242188 367 C 490.515625 368.363281 492.753906 369.78125 494.957031 371.253906 C 497.160156 372.726562 499.324219 374.25 501.453125 375.832031 C 503.582031 377.410156 505.671875 379.042969 507.71875 380.722656 C 509.765625 382.40625 511.773438 384.136719 513.738281 385.917969 C 515.699219 387.695312 517.617188 389.523438 519.492188 391.398438 C 521.367188 393.273438 523.191406 395.195312 524.972656 397.15625 C 526.75 399.121094 528.480469 401.128906 530.164062 403.175781 C 531.84375 405.226562 533.472656 407.316406 535.054688 409.445312 C 536.632812 411.578125 538.15625 413.742188 539.628906 415.949219 C 541.101562 418.152344 542.519531 420.390625 543.882812 422.664062 C 545.242188 424.9375 546.546875 427.246094 547.796875 429.582031 C 549.046875 431.921875 550.238281 434.289062 551.371094 436.6875 C 552.503906 439.082031 553.578125 441.503906 554.589844 443.953125 C 555.605469 446.402344 556.558594 448.878906 557.453125 451.375 C 558.34375 453.871094 559.175781 456.386719 559.945312 458.925781 C 560.714844 461.460938 561.421875 464.015625 562.0625 466.585938 C 562.707031 469.160156 563.289062 471.746094 563.804688 474.34375 C 564.324219 476.945312 564.777344 479.554688 565.164062 482.179688 C 565.554688 484.800781 565.878906 487.433594 566.136719 490.070312 C 566.398438 492.710938 566.59375 495.351562 566.722656 498 C 566.851562 500.648438 566.917969 503.300781 566.917969 505.949219 Z M 566.917969 505.949219 " fill-opacity="1" fill-rule="nonzero"/></g><path stroke-linecap="round" transform="matrix(0.965534, 0, 0, 0.965534, -29254.365781, -8670.522442)" fill-opacity="1" fill="#ffffff" fill-rule="evenodd" stroke-linejoin="round" d="M 30640.40114 9422.349426 L 30685.700727 9422.029817 L 30795.698982 9582.121801 L 30749.998872 9581.721277 Z M 30640.40114 9422.349426 " stroke="#ffffff" stroke-width="2.14" stroke-opacity="1" stroke-miterlimit="1.5"/><path stroke-linecap="round" transform="matrix(0.965534, 0, 0, 0.965534, -29254.365781, -8670.522442)" fill-opacity="1" fill="#ffffff" fill-rule="evenodd" stroke-linejoin="round" d="M 30776.801566 9422.029817 L 30790.900794 9422.029817 L 30653.998703 9582.121801 L 30640.40114 9582.121801 Z M 30776.801566 9422.029817 " stroke="#ffffff" stroke-width="2.14" stroke-opacity="1" stroke-miterlimit="1.5"/><path fill="#a855f7" d="M 348.027344 438.769531 L 368.304688 438.882812 L 462.058594 573.132812 L 441.78125 573.101562 Z M 348.027344 438.769531 " fill-opacity="1" fill-rule="evenodd"/><path fill="#a855f7" d="M 348.027344 438.769531 L 368.304688 438.882812 L 462.058594 573.132812 L 441.78125 573.101562 Z M 349.574219 439.589844 C 349.574219 439.589844 442.167969 572.292969 442.167969 572.292969 C 442.167969 572.292969 460.515625 572.320312 460.515625 572.320312 L 367.824219 439.695312 Z M 349.574219 439.589844 " fill-opacity="1" fill-rule="evenodd"/></svg>