<svg xmlns="http://www.w3.org/2000/svg" xmlns:xlink="http://www.w3.org/1999/xlink" width="1080" zoomAndPan="magnify" viewBox="0 0 810 1012.49997" height="1350" preserveAspectRatio="xMidYMid meet" version="1.0"><defs><clipPath id="19dce3baf1"><path d="M 0.199219 0 L 809.800781 0 L 809.800781 1012 L 0.199219 1012 Z M 0.199219 0 " clip-rule="nonzero"/></clipPath><clipPath id="9ef8c951e0"><path d="M 243.078125 399.738281 L 566.921875 399.738281 L 566.921875 612.636719 L 243.078125 612.636719 Z M 243.078125 399.738281 " clip-rule="nonzero"/></clipPath></defs><g clip-path="url(#19dce3baf1)"><path fill="#ffffff" d="M 0.199219 0 L 809.800781 0 L 809.800781 1012 L 0.199219 1012 Z M 0.199219 0 " fill-opacity="1" fill-rule="nonzero"/><path fill="#ffffff" d="M 0.199219 0 L 809.800781 0 L 809.800781 1012 L 0.199219 1012 Z M 0.199219 0 " fill-opacity="1" fill-rule="nonzero"/></g><g clip-path="url(#9ef8c951e0)"><path fill="#a855f7" d="M 517.40625 399.738281 L 292.59375 399.738281 C 265.347656 399.738281 243.214844 421.871094 243.214844 449.117188 L 243.214844 562.882812 C 243.214844 590.128906 265.347656 612.261719 292.59375 612.261719 L 517.40625 612.261719 C 544.652344 612.261719 566.785156 590.128906 566.785156 562.882812 L 566.785156 449.117188 C 566.785156 421.871094 544.652344 399.738281 517.40625 399.738281 Z M 371.738281 563.660156 L 371.738281 448.40625 L 471.527344 506.066406 L 371.738281 563.726562 Z M 371.738281 563.660156 " fill-opacity="1" fill-rule="nonzero"/></g></svg>